<svg width="24" height="24" xmlns="http://www.w3.org/2000/svg">
 <g>
  <title>Layer 1</title>
  <path id="svg_5" d="m16.35327,16.39394l4.26127,0l0,-5.85008c-0.02385,-1.45336 -0.51967,-3.24323 -1.85035,-4.97602c-1.31109,-1.71575 -3.676,-3.16911 -6.76333,-3.141c-3.08989,-0.02726 -5.45479,1.4261 -6.76504,3.141c-1.33069,1.73279 -1.82735,3.52351 -1.85206,4.97687l0,5.84923l4.25956,0l0,-5.84923c-0.023,-0.32117 0.25813,-1.52407 0.93625,-2.34106c0.69772,-0.83402 1.57433,-1.48829 3.41958,-1.5147c1.84439,0.02726 2.72186,0.68068 3.41872,1.5147c0.67983,0.81698 0.95925,2.02074 0.93625,2.34106l0,5.84923l-0.00085,0zm4.26127,5.17878c0,0 0,-2.0054 0,-4.32686l-4.26127,0c0,2.32317 0,4.32772 0,4.32772l4.26297,-0.00085l-0.0017,0zm-17.23078,0.00085l4.25956,0c0,0 0,-2.0054 0,-4.32772l-4.25956,0c0,2.32317 0,4.32772 0,4.32772z" stroke="#000" fill="none"/>
 </g>

</svg>