<svg width="24" height="24" xmlns="http://www.w3.org/2000/svg">
 <g>
  <title>Layer 1</title>
  <path id="svg_3" d="m11.99881,4.76889c-1.18761,1.18831 -1.65024,2.81034 -1.42809,4.35338l2.20173,-2.20173c0.00282,-0.00353 0.00987,-0.00564 0.01128,-0.00846c0.1481,-0.28421 0.32723,-0.55643 0.56559,-0.79409c1.25108,-1.25249 3.28002,-1.25178 4.53322,0c1.25178,1.25037 1.25319,3.28073 0.00141,4.53392c-0.23978,0.23978 -0.5127,0.4182 -0.79761,0.567c-0.00282,0.00141 -0.00423,0.00423 -0.00705,0.00705l-2.20243,2.20243c1.54304,0.22285 3.16789,-0.23978 4.3555,-1.42668c1.99721,-1.99721 1.9958,-5.23492 0,-7.23213c-1.99862,-1.99721 -5.23633,-1.99721 -7.23354,-0.00071zm-0.7828,12.31753c-0.14739,0.28562 -0.32582,0.55784 -0.56489,0.79761c-1.25178,1.25108 -3.28355,1.25108 -4.53533,0c-1.25178,-1.25108 -1.25178,-3.28143 0,-4.53462c0.23907,-0.23837 0.51129,-0.41679 0.7955,-0.56418c0.00282,-0.00423 0.00353,-0.00846 0.00776,-0.01128l2.20102,-2.20243c-1.54234,-0.22285 -3.16578,0.24119 -4.35268,1.42738c-1.99651,1.9965 -1.9958,5.23492 0,7.23213c1.99792,1.9965 5.23563,1.9965 7.23354,0c1.18761,-1.18761 1.65165,-2.81104 1.42668,-4.35479l-2.20384,2.20243c-0.00212,0.00494 -0.00494,0.00635 -0.00776,0.00776zm-3.60795,-2.24404l1.54939,1.54939c0.37871,0.37871 0.99931,0.37871 1.37731,0l5.85482,-5.85481c0.38012,-0.378 0.38012,-0.99931 0.00141,-1.37661l-1.5508,-1.54939c-0.378,-0.38012 -0.99861,-0.38012 -1.37661,-0.00141l-5.85482,5.85552c-0.37941,0.37871 -0.37941,0.99931 -0.00071,1.37731z" stroke="#000" fill="none"/>
 </g>

</svg>