<svg width="50" height="50" xmlns="http://www.w3.org/2000/svg" version="1.1">

 <g>
  <title>Layer 1</title>
  <path id="svg_2" d="m44.33333,2.80565c-2.25537,0 -4.08384,1.82847 -4.08384,4.08384c0,2.25591 4.08384,9.86711 4.08384,9.86711s4.08384,-7.61119 4.08384,-9.86711c0,-2.25537 -1.82793,-4.08384 -4.08384,-4.08384zm0,6.03537c-1.07759,0 -1.95153,-0.8734 -1.95153,-1.95153s0.87394,-1.95153 1.95153,-1.95153s1.95153,0.87394 1.95153,1.95153s-0.87394,1.95153 -1.95153,1.95153z" stroke="#000" fill="none"/>
  <path id="svg_4" d="m5.66666,31.47049c-2.25537,0 -4.08384,1.82847 -4.08384,4.08384c0,2.25591 4.08384,9.86711 4.08384,9.86711s4.08384,-7.61119 4.08384,-9.86711c0,-2.25537 -1.82793,-4.08384 -4.08384,-4.08384zm0,6.03537c-1.07759,0 -1.95153,-0.8734 -1.95153,-1.95153s0.87394,-1.95153 1.95153,-1.95153s1.95153,0.87394 1.95153,1.95153s-0.87394,1.95153 -1.95153,1.95153z" stroke="#000" fill="none"/>
  <line id="svg_5" y2="18.71766" x2="44.14612" y1="47.19435" x1="6.42369" stroke="#000" fill="none"/>
  <path id="svg_7" d="m25.55493,15.8839c-2.25537,0 -4.08384,1.82847 -4.08384,4.08384c0,2.25591 4.08384,9.86711 4.08384,9.86711s4.08384,-7.61119 4.08384,-9.86711c0,-2.25537 -1.82793,-4.08384 -4.08384,-4.08384zm0,6.03537c-1.07759,0 -1.95153,-0.8734 -1.95153,-1.95153s0.87394,-1.95153 1.95153,-1.95153s1.95153,0.87394 1.95153,1.95153s-0.87394,1.95153 -1.95153,1.95153z" stroke="#000" fill="none"/>
 </g>
</svg>