<?xml version="1.0" encoding="UTF-8" standalone="no"?>
<!-- Created with Inkscape (http://www.inkscape.org/) -->

<svg
   width="134.92543"
   height="179.57149"
   viewBox="0 0 35.699019 47.511622"
   version="1.1"
   id="svg1"
   xmlns="http://www.w3.org/2000/svg"
   xmlns:svg="http://www.w3.org/2000/svg">
  <defs
     id="defs1" />
  <g
     id="layer1"
     transform="translate(-8.6088237,-2.7025219)">
    <g
       id="g2"
       transform="translate(8.9423168,0.45150373)">
      <path
         style="fill:#000000;stroke:none;stroke-width:0.264583"
         d="M 12.612546,2.2510182 4.07512,49.762641 H 8.2054171 L 13.972127,2.2510182 Z"
         id="path2" />
      <path
         style="fill:#000000;stroke:none;stroke-width:0.264583"
         d="M 22.419487,2.2510182 30.956913,49.762641 H 26.826616 L 21.059906,2.2510182 Z"
         id="path2-5" />
    </g>
    <g
       id="g3"
       transform="translate(0,-2.5815845)">
      <path
         style="fill:#000000;stroke:none;stroke-width:0.304968"
         d="M 9.4163117,48.18493 H 43.494789 l 0.813054,3.390453 H 8.6088237 Z"
         id="path3" />
      <path
         style="fill:#000000;stroke:none;stroke-width:0.27684"
         d="m 10.999363,40.860677 h 31.004028 l 0.739702,3.070936 H 10.264724 Z"
         id="path3-8" />
      <path
         style="fill:#000000;stroke:none;stroke-width:0.256614"
         d="m 12.181672,33.738327 h 28.513872 l 0.680292,2.869033 H 11.506037 Z"
         id="path3-6" />
      <path
         style="fill:#000000;stroke:none;stroke-width:0.244755"
         d="m 13.5436,26.601275 h 25.80712 l 0.615714,2.883735 H 12.932101 Z"
         id="path3-3" />
      <path
         style="fill:#000000;stroke:none;stroke-width:0.228988"
         d="M 14.996871,19.511269 H 37.96064 l 0.547876,2.836689 h -24.05577 z"
         id="path3-7" />
      <path
         style="fill:#000000;stroke:none;stroke-width:0.202542"
         d="m 16.086703,12.781945 h 20.583081 l 0.491077,2.476007 H 15.598988 Z"
         id="path3-0" />
      <path
         style="fill:#000000;stroke:none;stroke-width:0.171146"
         d="m 17.460815,6.5044526 h 17.976909 l 0.428898,2.0241758 H 17.034853 Z"
         id="path3-06" />
    </g>
  </g>
</svg>
